/vscmnt/brussel_pixiu_data/_data_brussel/112/vsc11236/PredSimResults/SUBJ06_Dhondt2024_3seg/weighted/worker_05.mot
version=1
nRows=4
nColumns=124
inDegrees=yes
endheader
                time	         pelvis_tilt	         pelvis_list	     pelvis_rotation	           pelvis_tx	           pelvis_ty	           pelvis_tz	       hip_flexion_r	     hip_adduction_r	      hip_rotation_r	        knee_angle_r	       ankle_angle_r	    subtalar_angle_r	         mtp_angle_r	       hip_flexion_l	     hip_adduction_l	      hip_rotation_l	        knee_angle_l	       ankle_angle_l	    subtalar_angle_l	         mtp_angle_l	    lumbar_extension	      lumbar_bending	     lumbar_rotation	          arm_flex_r	           arm_add_r	           arm_rot_r	        elbow_flex_r	          arm_flex_l	           arm_add_l	           arm_rot_l	        elbow_flex_l	glut_med1_r/activation	glut_med2_r/activation	glut_med3_r/activation	glut_min1_r/activation	glut_min2_r/activation	glut_min3_r/activation	semimem_r/activation	semiten_r/activation	bifemlh_r/activation	bifemsh_r/activation	    sar_r/activation	add_long_r/activation	add_brev_r/activation	add_mag1_r/activation	add_mag2_r/activation	add_mag3_r/activation	    tfl_r/activation	   pect_r/activation	   grac_r/activation	glut_max1_r/activation	glut_max2_r/activation	glut_max3_r/activation	iliacus_r/activation	  psoas_r/activation	quad_fem_r/activation	    gem_r/activation	   peri_r/activation	rect_fem_r/activation	vas_med_r/activation	vas_int_r/activation	vas_lat_r/activation	med_gas_r/activation	lat_gas_r/activation	 soleus_r/activation	tib_post_r/activation	flex_dig_r/activation	flex_hal_r/activation	tib_ant_r/activation	per_brev_r/activation	per_long_r/activation	per_tert_r/activation	ext_dig_r/activation	ext_hal_r/activation	glut_med1_l/activation	glut_med2_l/activation	glut_med3_l/activation	glut_min1_l/activation	glut_min2_l/activation	glut_min3_l/activation	semimem_l/activation	semiten_l/activation	bifemlh_l/activation	bifemsh_l/activation	    sar_l/activation	add_long_l/activation	add_brev_l/activation	add_mag1_l/activation	add_mag2_l/activation	add_mag3_l/activation	    tfl_l/activation	   pect_l/activation	   grac_l/activation	glut_max1_l/activation	glut_max2_l/activation	glut_max3_l/activation	iliacus_l/activation	  psoas_l/activation	quad_fem_l/activation	    gem_l/activation	   peri_l/activation	rect_fem_l/activation	vas_med_l/activation	vas_int_l/activation	vas_lat_l/activation	med_gas_l/activation	lat_gas_l/activation	 soleus_l/activation	tib_post_l/activation	flex_dig_l/activation	flex_hal_l/activation	tib_ant_l/activation	per_brev_l/activation	per_long_l/activation	per_tert_l/activation	ext_dig_l/activation	ext_hal_l/activation	 ercspn_r/activation	 ercspn_l/activation	 intobl_r/activation	 intobl_l/activation	 extobl_r/activation	 extobl_l/activation	
          1.24660235	         -2.93007448	         -1.68237809	          1.96368035	          1.23413632	          0.93152915	         -0.00315692	         24.51577428	          3.62710375	          3.29687475	         -4.62250475	          4.76616517	         -6.50202157	          0.19118476	        -14.26854466	          1.53029370	         10.97846161	         -5.26991063	          6.51892307	         -5.27750720	         17.02174074	         -4.42632178	          0.64139058	         -1.40649803	         -3.66551529	        -13.45000752	         18.60921193	         25.37617319	          0.97443501	        -13.50523145	         19.28037129	         49.48031043	          0.01458703	          0.01000892	          0.01000026	          0.01458677	          0.01001330	          0.01000077	          0.19413243	          0.03689880	          0.03008757	          0.01005248	          0.01000017	          0.11480358	          0.21781661	          0.15555776	          0.16443230	          0.09233535	          0.01000041	          0.01785446	          0.05778116	          0.01362784	          0.01458870	          0.06892859	          0.01371911	          0.01221442	          0.01484512	          0.01000024	          0.01000015	          0.01000083	          0.10891466	          0.10658587	          0.08888145	          0.01000004	          0.01000010	          0.01000010	          0.01207730	          0.01000147	          0.01000282	          0.24219959	          0.24082566	          0.15677435	          0.13566092	          0.32812676	          0.03212252	          0.29340319	          0.14532140	          0.08117741	          0.40270082	          0.32455656	          0.20969274	          0.01000174	          0.01000031	          0.01000033	          0.05291348	          0.11941429	          0.01000004	          0.01000006	          0.01000014	          0.01000059	          0.01000039	          0.42574148	          0.01000022	          0.01000034	          0.02570411	          0.01766307	          0.01000348	          0.31629685	          0.45020477	          0.01761732	          0.02127718	          0.10824536	          0.28398519	          0.01000054	          0.01000060	          0.01000055	          0.45511964	          0.53498731	          0.45543734	          0.26714566	          0.30521439	          0.39492298	          0.01233020	          0.26501273	          0.30601964	          0.01578211	          0.01458711	          0.01261869	          0.02669171	          0.01000000	          0.05113464	          0.01000001	          0.08376519	          0.01000002	
          1.25906837	         -2.92945523	         -1.96326254	          2.11615718	          1.24928574	          0.93087311	         -0.00292492	         23.61474598	          4.09822546	          3.44375696	         -3.73820924	          3.60421613	         -6.83867910	          0.20812981	        -14.53279242	          1.25485492	         10.58828744	         -6.46552829	          5.93046035	         -5.04859614	         18.28489380	         -4.26201712	          1.11368688	         -1.48289532	         -4.10515232	        -13.45138166	         18.46644504	         24.22858839	          0.38871909	        -13.53369954	         19.26608707	         51.20374652	          0.01207771	          0.01054942	          0.01000017	          0.01207774	          0.01207754	          0.01000121	          0.16765376	          0.03055131	          0.02491177	          0.01000005	          0.01000019	          0.09505475	          0.20966787	          0.20353900	          0.16011145	          0.07645147	          0.01000025	          0.02622097	          0.04784164	          0.01128382	          0.01207914	          0.05723705	          0.01135910	          0.01011325	          0.11084608	          0.05160219	          0.01000039	          0.01761752	          0.09017957	          0.08825123	          0.07359239	          0.01000000	          0.01000002	          0.01000000	          0.01000001	          0.01000012	          0.01000009	          0.24860276	          0.21013367	          0.14241963	          0.14161249	          0.36154537	          0.02659673	          0.34330579	          0.12032239	          0.06721281	          0.33342823	          0.26872455	          0.17362021	          0.01000082	          0.01000021	          0.01000016	          0.04381102	          0.09887212	          0.01000128	          0.01000038	          0.01000054	          0.01000163	          0.01000051	          0.35250360	          0.01001748	          0.01000929	          0.02128251	          0.01462474	          0.01000144	          0.28259107	          0.37275975	          0.01458681	          0.01761709	          0.08962438	          0.25669426	          0.01000066	          0.01000074	          0.01000066	          0.41999056	          0.49693365	          0.43168369	          0.26184538	          0.30770219	          0.39040865	          0.01020909	          0.21942406	          0.30257379	          0.01306720	          0.01207776	          0.01044797	          0.02210006	          0.01000005	          0.04233817	          0.01228888	          0.06935543	          0.01000004	
          1.27153439	         -2.92415694	         -2.24771402	          2.25857651	          1.26479046	          0.93026062	         -0.00269089	         22.70461105	          4.54473634	          3.61913423	         -3.42699354	          1.99940959	         -7.16266146	          0.22075659	        -14.72876301	          0.97046868	         10.16633495	         -7.80230699	          5.19453515	         -4.75142711	         19.62790898	         -4.07622265	          1.59649825	         -1.55150490	         -4.58522113	        -13.46482238	         18.37257940	         23.13589800	         -0.26633244	        -13.56376210	         19.24557616	         52.90630845	          0.01000005	          0.01000004	          0.01000013	          0.01000011	          0.01000008	          0.01000009	          0.13881301	          0.02529579	          0.02062634	          0.01000053	          0.01458465	          0.07870304	          0.19595194	          0.16852598	          0.13256836	          0.06329988	          0.01000017	          0.02172706	          0.12055801	          0.01000011	          0.01000127	          0.04739085	          0.01458769	          0.01458885	          0.20819763	          0.04272660	          0.01000045	          0.01458689	          0.07466642	          0.07306981	          0.06093266	          0.01458705	          0.01458757	          0.01250388	          0.01458724	          0.01380983	          0.01458713	          0.20583683	          0.19321849	          0.13935238	          0.11725153	          0.42303394	          0.02202145	          0.28424865	          0.09962385	          0.05565048	          0.27607694	          0.22249705	          0.14375308	          0.01000222	          0.01000031	          0.01000025	          0.03627441	          0.08186365	          0.01000075	          0.01000036	          0.01000060	          0.01000210	          0.01000097	          0.29186401	          0.01000161	          0.01000106	          0.01762150	          0.01210906	          0.01000141	          0.23616720	          0.31918506	          0.01207756	          0.01458659	          0.07420669	          0.22503629	          0.01206875	          0.01207037	          0.01207688	          0.38302352	          0.45352202	          0.40277550	          0.24659628	          0.29885835	          0.37754162	          0.01000001	          0.18168137	          0.30503404	          0.01081932	          0.01000008	          0.01000010	          0.01829829	          0.01352612	          0.03505492	          0.01458694	          0.05742451	          0.01000019	
          1.28400042	         -2.91573405	         -2.54566911	          2.38718566	          1.28053738	          0.92974384	         -0.00248034	         21.75032092	          4.93930542	          3.83970452	         -3.21544393	          0.13124940	         -7.48510112	          0.22078540	        -14.82835798	          0.67096075	          9.69997787	         -9.30713805	          4.28484126	         -4.39538601	         21.03792175	         -3.87683790	          2.10209098	         -1.60912322	         -5.08298886	        -13.49681654	         18.35505172	         22.08917633	         -0.97037920	        -13.58520475	         19.22004274	         54.56524029	          0.22050300	          0.20479963	          0.21174011	          0.07674685	          0.01000562	          0.17524663	          0.11493361	          0.05161121	          0.02986956	          0.01761919	          0.01207743	          0.06516411	          0.16224318	          0.13953524	          0.10976327	          0.05241072	          0.01000501	          0.01798963	          0.09981904	          0.02080869	          0.01000335	          0.03923845	          0.01207826	          0.01207922	          0.17238231	          0.03537669	          0.08364277	          0.01207759	          0.06182192	          0.06049998	          0.05045073	          0.01207771	          0.01207814	          0.01035289	          0.01207787	          0.01143422	          0.01207779	          0.39451342	          0.26764093	          0.14615994	          0.51790502	          0.51708703	          0.20729496	          0.30794066	          0.08248599	          0.04607717	          0.36918575	          0.18422187	          0.11902386	          0.01000199	          0.01000019	          0.01000011	          0.03003430	          0.06778105	          0.01000025	          0.01000065	          0.01000051	          0.01000148	          0.01000053	          0.24165597	          0.11470982	          0.01000057	          0.01459027	          0.01002616	          0.01000049	          0.19554134	          0.28756571	          0.01000008	          0.01207742	          0.06144123	          0.18632429	          0.01000162	          0.01000156	          0.01000122	          0.32841876	          0.39943781	          0.36161224	          0.22646219	          0.25532316	          0.32916606	          0.01000001	          0.15139478	          0.29451358	          0.01000007	          0.01000002	          0.01000009	          0.01855446	          0.03780049	          0.02902458	          0.01207762	          0.04754602	          0.01000005	
